<svg width="544" height="110" viewBox="0 0 544 110" fill="none" xmlns="http://www.w3.org/2000/svg">
<path fill-rule="evenodd" clip-rule="evenodd" d="M164 79.4692V82.5875H170.105V98.951H174.557V82.5875H180.662V79.4692H164Z" fill="white"/>
<path fill-rule="evenodd" clip-rule="evenodd" d="M185.763 98.9509V88.8444C186.783 87.8951 188.123 87.3656 189.515 87.3614C190.864 87.3614 191.543 87.9505 191.543 89.8398V98.9814H195.539V89.3827C195.539 86.5285 193.927 84.7002 190.57 84.7002C188.809 84.7763 187.116 85.3973 185.722 86.4777V79.52H181.666V98.9814L185.763 98.9509Z" fill="white"/>
<path fill-rule="evenodd" clip-rule="evenodd" d="M210.568 98.9509C210.33 98.3011 210.22 97.6113 210.244 96.9195V90.3172C210.244 86.1121 208.307 84.7408 203.794 84.6596C201.34 84.5986 198.561 85.7363 197.527 87.2091L200.113 88.8545C200.55 88.3008 201.111 87.8573 201.75 87.5592C202.389 87.2612 203.089 87.1169 203.794 87.138C205.214 87.138 206.238 87.7271 206.238 88.8038V89.9922C199.727 90.6422 196.624 92.308 196.624 95.4873C196.624 97.3968 198.135 99.2048 201.178 99.2048C203.026 99.2096 204.839 98.6959 206.41 97.7219L206.664 98.9407L210.568 98.9509ZM206.238 95.2537C205.168 96.0669 203.901 96.5788 202.567 96.7366C201.431 96.7366 200.63 96.1475 200.63 95.0911C200.63 93.1308 203.561 92.6737 206.238 92.2369V95.2537Z" fill="white"/>
<path fill-rule="evenodd" clip-rule="evenodd" d="M216.653 98.951V88.8444C217.669 87.8949 219.005 87.3652 220.395 87.3615C221.754 87.3615 222.423 87.9506 222.423 89.8399V98.9814H226.419V89.3828C226.419 86.5286 224.806 84.7003 221.45 84.7003C219.601 84.8207 217.819 85.4344 216.288 86.4778V84.9644H212.607V98.9814L216.653 98.951Z" fill="white"/>
<path fill-rule="evenodd" clip-rule="evenodd" d="M241.458 98.9509C241.211 98.3032 241.098 97.6122 241.123 96.9194V90.3172C241.123 86.1121 239.197 84.7408 234.674 84.6596C232.219 84.5986 229.441 85.7362 228.406 87.2091L230.992 88.8545C231.43 88.3008 231.991 87.8573 232.63 87.5592C233.269 87.2612 233.969 87.1169 234.674 87.138C236.093 87.138 237.128 87.7271 237.128 88.8038V89.9922C230.607 90.6422 227.504 92.308 227.504 95.4873C227.504 97.3968 229.025 99.2048 232.057 99.2048C233.906 99.2112 235.719 98.6974 237.29 97.7219L237.544 98.9407L241.458 98.9509ZM237.128 95.2537C236.053 96.0651 234.783 96.5768 233.447 96.7366C232.321 96.7366 231.51 96.1475 231.51 95.0911C231.51 93.1308 234.44 92.6737 237.128 92.2369V95.2537Z" fill="white"/>
<path fill-rule="evenodd" clip-rule="evenodd" d="M256.153 88.4077C255.22 86.0715 252.694 84.6698 249.541 84.6698C244.977 84.6698 242.239 87.4935 242.239 91.9424C242.239 96.3913 244.977 99.2151 249.541 99.2151C250.876 99.325 252.215 99.0542 253.403 98.4341C254.591 97.814 255.579 96.8699 256.254 95.7108L253.212 94.2888C252.879 94.9497 252.373 95.5071 251.748 95.9009C251.122 96.2948 250.401 96.51 249.662 96.5234C247.31 96.5234 246.245 95.0709 246.245 91.9424C246.245 88.814 247.259 87.3615 249.541 87.3615C250.242 87.3225 250.937 87.507 251.528 87.8883C252.118 88.2697 252.573 88.8284 252.826 89.4844L256.153 88.4077Z" fill="white"/>
<path fill-rule="evenodd" clip-rule="evenodd" d="M262.075 98.9509V88.8444C263.085 87.8979 264.414 87.3683 265.797 87.3614C267.146 87.3614 267.825 87.9505 267.825 89.8398V98.9814H271.882V89.3827C271.882 86.5285 270.269 84.7002 266.912 84.7002C265.155 84.7764 263.465 85.3975 262.075 86.4777V79.52H258.019V98.9814L262.075 98.9509Z" fill="white"/>
<path fill-rule="evenodd" clip-rule="evenodd" d="M286.87 98.9509C286.635 98.3005 286.528 97.6106 286.556 96.9194V90.3172C286.556 86.1121 284.619 84.7408 280.096 84.6596C277.642 84.5986 274.863 85.7363 273.829 87.2091L276.415 88.8545C276.852 88.3008 277.413 87.8573 278.052 87.5592C278.691 87.2612 279.391 87.1169 280.096 87.138C281.516 87.138 282.55 87.7271 282.55 88.8038V89.9922C276.029 90.6422 272.926 92.308 272.926 95.4873C272.926 97.3968 274.447 99.2048 277.479 99.2048C279.328 99.2123 281.142 98.6984 282.712 97.7219L282.966 98.9407L286.87 98.9509ZM282.55 95.2537C281.475 96.0651 280.205 96.5768 278.869 96.7366C277.733 96.7366 276.932 96.1475 276.932 95.0911C276.932 93.1308 279.873 92.6737 282.55 92.2369V95.2537Z" fill="white"/>
<path fill-rule="evenodd" clip-rule="evenodd" d="M292.691 98.9509V90.4289C293.09 89.7778 293.638 89.2321 294.291 88.8379C294.944 88.4437 295.682 88.2125 296.443 88.1638C296.68 88.1465 296.917 88.1465 297.153 88.1638V84.6393C296.197 84.5914 295.246 84.8159 294.411 85.2869C293.577 85.7579 292.892 86.456 292.438 87.3005H292.377V84.9034H288.696V98.9204L292.691 98.9509Z" fill="white"/>
<path fill-rule="evenodd" clip-rule="evenodd" d="M297.691 84.9339V87.6255H300.013V95.985C300.013 98.0165 301.169 99.215 304.14 99.215C305.201 99.1996 306.261 99.1284 307.315 99.0017V96.2491C306.709 96.3971 306.091 96.4889 305.469 96.5234C304.455 96.5234 304.019 96.3101 304.019 95.5076V87.5849H307.315V84.8932H304.019V80.3529H299.962V84.9846L297.691 84.9339Z" fill="white"/>
<path fill-rule="evenodd" clip-rule="evenodd" d="M330.639 83.6134C329.25 80.7896 326.147 79.2153 322.405 79.2153C318.348 79.2153 314.88 81.1858 314.88 84.6697C314.88 90.6524 326.887 89.8906 326.887 93.7199C326.887 95.6092 325.173 96.31 322.952 96.31C321.902 96.3556 320.861 96.0911 319.96 95.5493C319.059 95.0076 318.336 94.2125 317.882 93.2628L314.2 94.5731C315.529 97.3969 319.109 99.1744 322.922 99.1744C328.084 99.1744 331.035 97.1429 331.035 93.1917C331.035 86.8841 319.028 87.5849 319.028 84.2431C319.028 82.7398 320.417 82.0898 322.354 82.0898C323.223 82.0352 324.088 82.2495 324.832 82.7037C325.576 83.1579 326.162 83.83 326.512 84.6291L330.639 83.6134Z" fill="white"/>
<path fill-rule="evenodd" clip-rule="evenodd" d="M336.896 90.2156C336.943 89.3889 337.303 88.6114 337.904 88.0426C338.504 87.4737 339.3 87.1568 340.126 87.1568C340.953 87.1568 341.748 87.4737 342.349 88.0426C342.949 88.6114 343.31 89.3889 343.356 90.2156H336.896ZM347.037 92.4807V91.1095C347.037 87.7372 344.583 84.6392 340.192 84.6697C335.639 84.6697 332.89 87.4935 332.89 91.9424C332.89 96.3913 335.639 99.215 339.989 99.215C343.224 99.215 345.486 98.3516 347.088 96.3608L344.178 94.8473C343.72 95.3902 343.145 95.8227 342.497 96.1129C341.85 96.403 341.145 96.5433 340.436 96.5233C338.559 96.5233 337.008 95.3959 336.947 92.4604L347.037 92.4807Z" fill="white"/>
<path fill-rule="evenodd" clip-rule="evenodd" d="M362.32 88.4077C361.377 86.0715 358.862 84.6698 355.698 84.6698C351.145 84.6698 348.396 87.4935 348.396 91.9424C348.396 96.3913 351.145 99.2151 355.698 99.2151C357.033 99.325 358.372 99.0542 359.56 98.4341C360.748 97.814 361.737 96.8699 362.411 95.7108L359.369 94.2888C359.037 94.9497 358.53 95.5071 357.905 95.9009C357.279 96.2948 356.558 96.51 355.82 96.5234C353.457 96.5234 352.392 95.0709 352.392 91.9424C352.392 88.814 353.457 87.3615 355.688 87.3615C356.393 87.3205 357.094 87.5049 357.688 87.8883C358.282 88.2716 358.739 88.8341 358.994 89.4945L362.32 88.4077Z" fill="white"/>
<path fill-rule="evenodd" clip-rule="evenodd" d="M375.017 84.9339V95.0404C373.997 95.9897 372.657 96.5192 371.265 96.5234C369.916 96.5234 369.236 95.9342 369.236 94.045V84.9034H365.18V94.5731C365.18 97.4375 366.792 99.2658 370.149 99.2658C372 99.1453 373.786 98.5316 375.321 97.4883V99.0017H379.002V84.9846L375.017 84.9339Z" fill="white"/>
<path fill-rule="evenodd" clip-rule="evenodd" d="M386.263 98.9509V90.4289C386.659 89.7774 387.206 89.2312 387.857 88.8369C388.509 88.4425 389.246 88.2116 390.006 88.1638C390.242 88.1465 390.479 88.1465 390.715 88.1638V84.6393C389.759 84.5914 388.808 84.8159 387.973 85.2869C387.139 85.7579 386.455 86.456 386 87.3005H385.939V84.9034H382.258V98.9204L386.263 98.9509Z" fill="white"/>
<path fill-rule="evenodd" clip-rule="evenodd" d="M397.033 84.9338H393.028V98.9509H397.033V84.9338ZM397.033 82.3437V79.2153H393.028V82.3843L397.033 82.3437Z" fill="white"/>
<path fill-rule="evenodd" clip-rule="evenodd" d="M399.254 84.9339V87.6255H401.577V95.985C401.577 98.0165 402.743 99.215 405.714 99.215C406.772 99.1993 407.828 99.128 408.878 99.0017V96.2491C408.273 96.3971 407.655 96.4889 407.033 96.5234C406.018 96.5234 405.582 96.3101 405.582 95.5076V87.5849H408.878V84.8932H405.582V80.3529H401.526V84.9846L399.254 84.9339Z" fill="white"/>
<path fill-rule="evenodd" clip-rule="evenodd" d="M415.45 84.9338H411.393V98.9509H415.45V84.9338ZM415.45 82.3437V79.2153H411.393V82.3843L415.45 82.3437Z" fill="white"/>
<path fill-rule="evenodd" clip-rule="evenodd" d="M422.062 90.2156C422.108 89.3889 422.468 88.6114 423.069 88.0426C423.67 87.4737 424.465 87.1568 425.292 87.1568C426.118 87.1568 426.914 87.4737 427.514 88.0426C428.115 88.6114 428.475 89.3889 428.522 90.2156H422.062ZM432.203 92.4807V91.1095C432.203 87.7372 429.749 84.6392 425.358 84.6697C420.804 84.6697 418.066 87.4935 418.066 91.9424C418.066 96.3913 420.804 99.215 425.165 99.215C428.39 99.215 430.651 98.3516 432.203 96.3608L429.302 94.8473C428.843 95.391 428.267 95.824 427.617 96.1141C426.968 96.4042 426.261 96.5441 425.55 96.5233C423.674 96.5233 422.133 95.3959 422.062 92.4604L432.203 92.4807Z" fill="white"/>
<path fill-rule="evenodd" clip-rule="evenodd" d="M445.549 86.7927C443.92 85.3557 441.805 84.5963 439.636 84.6698C436.736 84.6698 434.089 86.1223 434.089 88.7327C434.089 93.6082 442.476 92.7449 442.476 95.1522C442.476 96.0866 441.462 96.7367 440.093 96.7367C439.332 96.7085 438.588 96.5117 437.913 96.1604C437.237 95.8091 436.648 95.3121 436.188 94.7052L433.501 96.3812C434.275 97.3066 435.251 98.0422 436.353 98.5317C437.455 99.0211 438.655 99.2514 439.859 99.2049C443.378 99.2049 446.035 97.9149 446.035 94.9998C446.035 89.9211 437.638 90.9369 437.638 88.5093C437.638 87.6764 438.348 87.138 439.9 87.138C441.091 87.2305 442.206 87.7584 443.034 88.621L445.549 86.7927Z" fill="white"/>
<path fill-rule="evenodd" clip-rule="evenodd" d="M171.581 47.5267L184.807 36.4152H193.363L182.965 44.8363C188.327 44.8363 193.282 49.197 193.282 53.9876V65.3192H185.733V55.5179C185.733 51.9574 183.779 48.9769 179.231 48.9769C176.627 48.9769 173.534 52.3974 171.591 53.9776V65.3092H164.113V36.4052H171.591L171.581 47.5267Z" fill="white"/>
<path fill-rule="evenodd" clip-rule="evenodd" d="M217.781 65.3192V50.9372C215.746 54.7177 203.72 50.6472 203.72 57.2581C203.72 59.8785 205.511 60.9586 208.268 60.9586C209.471 60.9519 210.67 60.8313 211.849 60.5986L212.745 65.3192C210.981 65.7159 209.181 65.9371 207.373 65.9793C202.286 65.9793 196.242 62.9289 196.242 57.7682C196.212 44.0062 217.781 52.0074 217.781 44.6263C217.781 41.6259 214.932 40.2657 211.931 40.2657C207.373 40.2657 204.534 41.0658 203.964 45.4164L196.242 45.4964C196.731 38.4955 203.883 36.0551 210.873 36.0551C216.641 36.0551 225.503 36.7752 225.503 43.6062V65.3192H217.781Z" fill="white"/>
<path fill-rule="evenodd" clip-rule="evenodd" d="M206.772 23.2733V28.064C206.772 30.3143 208.075 31.5545 210.588 31.5545H230.936V27.844H215.471C212.541 27.844 213.436 25.0836 213.436 23.2733H206.772Z" fill="white"/>
<path fill-rule="evenodd" clip-rule="evenodd" d="M257.887 65.3191V46.8766C257.887 39.4655 251.141 35.985 243.501 35.985C235.128 35.985 228.708 39.1055 228.708 47.1666V65.3191H236.267V46.5065C236.267 42.666 239.319 41.2858 243.256 41.2858C247.56 41.2858 250.378 43.026 250.378 46.9466V65.3191H257.887Z" fill="white"/>
<path fill-rule="evenodd" clip-rule="evenodd" d="M270.248 40.8458C271.713 37.8454 277.156 36.0551 280.575 36.0551C288.775 36.0551 292.031 41.1358 292.031 47.8168V65.3192H284.309V47.6768C284.309 43.9662 283.006 41.5759 278.377 41.5759C273.341 41.5759 270.238 44.7664 270.238 49.197V65.3192H262.76V36.4152H270.238L270.248 40.8458Z" fill="white"/>
<path fill-rule="evenodd" clip-rule="evenodd" d="M315.685 44.9163H323V44.1162C323 38.0153 315.278 35.615 309.672 35.615C304.229 35.615 296.344 38.0154 296.344 43.8962C296.344 55.2278 316.906 51.3072 316.906 57.108C316.906 60.1084 312.836 60.8886 310.161 60.8886C306.183 60.8886 302.846 59.5784 302.683 55.5878L295.296 55.5178C294.961 63.0689 303.008 65.7592 310.161 65.7592C316.825 65.7592 324.14 63.4289 324.14 56.5279C324.14 45.7164 303.792 48.9769 303.792 43.9662C303.792 41.4258 306.844 40.5557 309.235 40.5557C312.399 40.5557 315.604 41.6459 315.685 44.9163Z" fill="white"/>
<path fill-rule="evenodd" clip-rule="evenodd" d="M305.043 23.2733V28.064C305.043 30.3143 306.346 31.5545 308.858 31.5545H329.207V27.844H313.742C310.812 27.844 311.707 25.0836 311.707 23.2733H305.043Z" fill="white"/>
<path fill-rule="evenodd" clip-rule="evenodd" d="M338.038 56.0979V36.5652H326.175V41.7159H330.56V65.3192H340.072L347.632 42.376L354.53 65.3192H364.612V36.5652H356.971L357.053 56.388L351.121 36.5652H344.05L338.038 56.0979Z" fill="white"/>
<path fill-rule="evenodd" clip-rule="evenodd" d="M389.813 36.4152V60.4185H380.799C378.276 60.4185 376.251 58.9683 376.251 56.648C376.251 54.0276 378.683 53.1575 381.206 53.1575H387.056V48.9069C383.566 48.9069 376.984 49.707 376.984 44.9864C376.984 39.9857 383.403 41.2058 387.158 41.2058V36.4152H379.548C374.023 36.4152 370.208 39.4156 370.208 44.5563C370.199 45.9729 370.675 47.3514 371.559 48.4704C372.442 49.5895 373.683 50.3842 375.081 50.7272C371.51 51.2272 368.661 53.6276 368.661 56.968C368.661 62.4888 374.186 65.3192 379.71 65.3192H397.352V36.4152H389.813Z" fill="white"/>
<path fill-rule="evenodd" clip-rule="evenodd" d="M422.624 56.3979C422.624 59.1383 419.928 59.9484 416.672 59.9484H409.775V52.1774H402.124V65.3092H420.172C425.259 65.3092 430.285 62.3588 430.285 57.3081C430.285 51.3072 428.169 49.307 422.299 47.5767C417.904 46.2965 409.367 45.7365 409.856 43.3961C410.161 41.9559 409.856 41.7159 414.638 41.0958C418.27 40.6257 428.322 41.6459 429.298 41.6459V36.4552C427.08 36.4552 423.815 35.675 415.93 35.675C406.407 35.675 401.92 37.6753 401.686 43.2761C401.605 46.9866 405.339 48.9769 408.696 50.007C414.139 51.6573 422.624 51.9173 422.624 56.3979Z" fill="white"/>
<path fill-rule="evenodd" clip-rule="evenodd" d="M453.818 60.8886C452.353 63.939 446.91 65.6793 443.501 65.6793C435.291 65.6793 432.035 60.5986 432.035 53.9176V36.4152H439.757V54.0576C439.757 57.7681 441.06 60.1585 445.689 60.1585C450.725 60.1585 453.828 56.968 453.828 52.5374V36.4152H461.306V65.3192H453.818V60.8886Z" fill="white"/>
<path fill-rule="evenodd" clip-rule="evenodd" d="M493.13 36.4152C492.805 40.0457 490.454 44.1862 486.222 45.0564C491.095 46.1465 493.13 50.2871 493.13 54.4977C493.13 62.1988 487.768 65.6793 479.232 65.6793C470.696 65.6793 465.345 62.6288 465.345 54.5677V36.4152H472.894V55.2978C472.894 58.9983 474.766 60.5985 478.998 60.5985C483.953 60.5985 485.418 57.5981 485.418 53.8476C485.418 49.347 482.661 46.1465 477.625 45.2064C481.359 43.8262 485.174 40.8458 485.174 36.9252V36.4152H493.13Z" fill="white"/>
<path fill-rule="evenodd" clip-rule="evenodd" d="M504.189 45.3464C504.189 40.4157 498.746 41.7159 494.758 41.7159V36.4152H501.269C506.957 36.4152 511.748 38.0154 511.748 43.7462V65.3192H504.189V45.3464Z" fill="white"/>
<path fill-rule="evenodd" clip-rule="evenodd" d="M536.522 65.3192H544V36.4152H535.383C534.497 37.5753 533.195 39.0355 531.405 39.0355C529.614 39.0355 528.352 37.5753 527.427 36.4152C517.1 36.4152 513.773 43.1661 513.773 51.5173C513.773 61.6887 521.088 65.1692 531.069 65.3192V60.1585C524.649 60.1585 521.241 56.898 521.241 51.0872C521.241 49.0869 521.566 41.7159 525.219 41.7159C525.877 42.5771 526.721 43.2845 527.69 43.7877C528.66 44.2908 529.73 44.5772 530.825 44.6263C533.104 44.6263 535.128 43.1661 536.512 41.6259L536.522 65.3192Z" fill="white"/>
<path fill-rule="evenodd" clip-rule="evenodd" d="M401.615 27.1238H389.996V33.4447H395.846V30.4642H401.615V27.1238Z" fill="white"/>
<path d="M7.26036 41.1758L10.5974 32.9046C22.0127 4.60064 56.0956 0 74.2562 0H164.428L161.091 8.27115C152.952 28.364 133.438 36.5151 116.519 39.5655C123.295 42.716 128.667 47.4967 130.763 54.3576C137.213 75.8306 107.088 96.8336 75.7009 105.425C44.3141 114.016 7.27055 111.366 0.881273 90.1027C-5.09087 70.2299 20.2119 50.7671 48.9127 41.1658L7.26036 41.1758Z" fill="white"/>
<path d="M16.885 35.135C26.7029 10.8116 56.6348 6.04089 74.8768 6.04089H155.994C147.133 28.044 121.85 34.0448 103.629 35.045C102.214 35.135 98.0532 35.195 98.0532 35.195L16.885 35.135Z" fill="#F37021"/>
<path d="M7.32141 88.3823C2.77363 73.2602 25.5227 53.7775 58.1304 44.8462C64.5214 43.0928 71.0426 41.8355 77.6339 41.0857C69.6372 43.376 61.7421 48.0867 56.8281 57.348C55.2002 60.3484 47.6715 74.8805 43.256 80.9513C36.8769 89.6625 32.0646 89.4825 32.0646 89.4825C61.5081 92.2429 77.8476 80.5712 83.7485 69.4797C86.5667 63.5688 91.6436 54.1475 93.9225 50.377C96.6492 45.1263 99.7827 42.6059 102.011 41.3757C114.321 43.376 123.091 48.4367 125.411 56.0478C129.949 71.1599 107.2 90.6527 74.5919 99.5839C41.9842 108.515 11.8692 103.484 7.32141 88.3623" fill="black"/>
</svg>
